<svg width="59" height="98" xmlns="http://www.w3.org/2000/svg" xmlns:xlink="http://www.w3.org/1999/xlink" xmlns:svgjs="http://svgjs.com/svgjs" viewBox="0.431 0 58.138 98"><svg xmlns="http://www.w3.org/2000/svg" width="59" height="98" viewBox="2.455 1.996 57.545 97" fill="#18cfab"><path fill="#18CFAB" paint-order="stroke fill markers" fill-rule="evenodd" d="M18.418 96.83c0 1.19.965 2.166 2.144 2.166H52.24c1.179 0 2.143-.976 2.143-2.165v-4.965H18.418v4.965zM17.7 36.977l.011-15.848c0-1.83.686-3.543 1.94-4.822 1.393-1.406 3.386-2.21 5.487-2.21 1.64 0 3.215.511 4.437 1.42 1.479 1.106 2.4 2.774 2.593 4.68 0 .043.847 8.309 1.607 15.708a18.247 18.247 0 0 0 8.917-15.708c0-10.053-8.06-18.2-18.004-18.2-9.945 0-18.005 8.147-18.005 18.2-.01 7.539 4.534 14.017 11.017 16.78zM60 57.656c0-2.113-1.34-3.987-3.333-4.636-5.948-1.962-17.951-5.871-19.784-6.24a8.993 8.993 0 0 0-1.66-.161c-1.448 0-2.712.4-3.473 1.083h-.01v-.013c-.011-.085-2.776-27.113-2.776-27.157-.225-2.168-2.004-3.195-3.837-3.195-2.08 0-4.223 1.32-4.212 3.779l-.021 43.799c0 .52-.375.954-.89 1.028h-.021c-.043.012-.096.012-.14.012h-.032c-1.457-.044-4.747-.086-7.951-4.778-.43-.617-.815-1.18-1.169-1.701-1.114-1.614-2.604-2.306-4.008-2.306-2.465 0-4.683 2.155-4.147 5.373.772 4.691 5.851 15.62 15.86 25.87h35.967l3.633-6.208a14.329 14.329 0 0 0 1.983-7.28l.02-17.269z"/></svg></svg>