<svg width="100" height="77" xmlns="http://www.w3.org/2000/svg" xmlns:xlink="http://www.w3.org/1999/xlink" xmlns:svgjs="http://svgjs.com/svgjs" viewBox="0 0.116 100 76.768"><svg xmlns="http://www.w3.org/2000/svg" width="100" height="77" viewBox="2 1.996 99 76" fill="#fff"><path fill="#FFF" paint-order="stroke fill markers" fill-rule="evenodd" d="M2 77.996h38.797V20.974H2v57.022zm20.217-2.858c-1.033 0-1.869-.828-1.869-1.835 0-1.009.836-1.83 1.869-1.83s1.87.821 1.87 1.83c.004 1.007-.837 1.835-1.87 1.835zM7.61 26.469h27.58l-.002 42.073H7.61V26.469zM21.188 7.361h62.174v24.72h5.48V1.996H15.71v16.541h5.478V7.361zm22.11 36.511H72.11v5.366H43.297v-5.366zm31.645-9.71v42.943H101V34.162H74.943zm13.607 1.779c.348 0 .629.274.629.616 0 .338-.28.619-.629.619a.628.628 0 0 1-.63-.619c0-.344.282-.616.63-.616zM84.802 38h7.496v.589h-7.496V38zm3.502 37.25c-.828 0-1.504-.662-1.504-1.475 0-.81.672-1.471 1.504-1.471.828 0 1.503.657 1.503 1.471 0 .813-.675 1.476-1.503 1.476zm8.515-5.057c-6.767.038-14.34.062-17.695.035V40.703l17.695-.004v29.495zm-45.592-18.76h-7.93v3.252h19.314v1.426H43.297v2.94h28.814v-7.618H53.313h-2.086z"/></svg></svg>