<svg width="94" height="76" xmlns="http://www.w3.org/2000/svg" xmlns:xlink="http://www.w3.org/1999/xlink" xmlns:svgjs="http://svgjs.com/svgjs" viewBox="0 0.097 94 75.807"><svg xmlns="http://www.w3.org/2000/svg" width="94" height="76" viewBox="2 1.996 93 75" fill="#fff"><path fill="#FFF" paint-order="stroke fill markers" fill-rule="evenodd" d="M76.294 1.996L64.05 20.416 51.395 1.995h24.9zm-14.188 22.63H34.943l13.58 51.4 13.583-51.4zM35.85 21.608h25.347L48.523 3.16 35.85 21.608zm-2.852-1.193L45.65 1.996H20.754l12.244 18.42zm12.647 56.581l-13.836-52.37H1.999l43.646 52.37zM2.042 21.608h28.115L17.91 3.186 2.042 21.608zM79.116 3.221L66.892 21.608h28.065L79.117 3.221zM65.24 24.626L51.4 76.991 95 24.626H65.239z"/></svg></svg>