<svg width="61" height="97" xmlns="http://www.w3.org/2000/svg" xmlns:xlink="http://www.w3.org/1999/xlink" xmlns:svgjs="http://svgjs.com/svgjs" viewBox="0.188 0 60.625 97"><svg xmlns="http://www.w3.org/2000/svg" width="61" height="97" viewBox="1 1.996 60 96" fill="#18cfab"><path fill="#18CFAB" paint-order="stroke fill markers" fill-rule="evenodd" d="M49 76.997a2.998 2.998 0 0 1-3 2.999H16c-1.658 0-3-1.341-3-2.999 0-1.659 1.342-3 3-3h30c1.658 0 3 1.341 3 3zm-3 6H16c-1.658 0-3 1.34-3 3 0 1.659 1.342 2.999 3 2.999h30c1.658 0 3-1.34 3-3 0-1.659-1.342-3-3-3zm-21 15h12c3.316 0 6-2.684 6-6H19c0 3.316 2.684 6 6 6zm36-66c0 16.311-9.832 18.21-11.678 35.999 0 1.659-1.342 3-3 3H15.678c-1.659 0-3-1.341-3-3h-.006C10.832 50.206 1 48.308 1 31.996c0-16.57 13.43-30 30-30s30 13.43 30 30zm-17.854-9c-34.875 8.249-18 30-18 30 0-12.001 8.813-14.814 9-14.438-6.187 6-9 26.437-9 26.437h6v-12c17.063.938 12-27.938 12-30z"/></svg></svg>