<svg width="45" height="31" xmlns="http://www.w3.org/2000/svg" xmlns:xlink="http://www.w3.org/1999/xlink" xmlns:svgjs="http://svgjs.com/svgjs" viewBox="0 0.159 45 30.681"><svg xmlns="http://www.w3.org/2000/svg" width="45" height="31" viewBox="2 1.994 44 29.999" fill="#18cfab"><path fill="#18CFAB" paint-order="stroke fill markers" fill-rule="evenodd" d="M11.658 12.903c5.311 0 9.616 4.273 9.616 9.545s-4.305 9.545-9.616 9.545c-5.31 0-9.615-4.273-9.615-9.545L2 21.084c0-10.543 8.61-19.09 19.231-19.09v5.453c-3.669 0-7.119 1.42-9.713 3.995-.5.496-.955 1.024-1.366 1.58a9.844 9.844 0 0 1 1.506-.12zm24.726 0c5.31 0 9.616 4.273 9.616 9.545s-4.305 9.545-9.616 9.545c-5.31 0-9.615-4.273-9.615-9.545l-.043-1.364c0-10.543 8.61-19.09 19.231-19.09v5.453c-3.67 0-7.119 1.42-9.713 3.995-.5.496-.955 1.024-1.367 1.58a9.845 9.845 0 0 1 1.507-.12z"/></svg></svg>